<svg width="200" height="200" viewBox="0 0 200 200" fill="none" xmlns="http://www.w3.org/2000/svg">
<path d="M188 8.80005H8V196H188V8.80005Z" fill="#3F3D56"/>
<path d="M95.4606 35.2H50.9414C50.8704 35.2004 50.8 35.1696 50.7343 35.1095C50.6687 35.0493 50.6089 34.9609 50.5586 34.8495C50.5083 34.7379 50.4685 34.6056 50.4412 34.4598C50.414 34.3141 50.4 34.1579 50.4 34C50.4 33.8422 50.414 33.686 50.4412 33.5401C50.4685 33.3945 50.5083 33.262 50.5586 33.1506C50.6089 33.039 50.6687 32.9508 50.7343 32.8906C50.8 32.8305 50.8704 32.7997 50.9414 32.8001H95.4606C95.6044 32.8006 95.7406 32.9275 95.8422 33.1524C95.9427 33.3774 96 33.6821 96 34C96 34.3178 95.9427 34.6227 95.8422 34.8477C95.7406 35.0726 95.6044 35.1993 95.4606 35.2Z" fill="#F2F2F2"/>
<path d="M145.059 43.2H74.9413C74.7973 43.2 74.6598 43.1158 74.5581 42.9657C74.4563 42.8157 74.4 42.6122 74.4 42.4C74.4 42.1878 74.4563 41.9844 74.5581 41.8343C74.6598 41.6843 74.7973 41.6 74.9413 41.6H145.059C145.13 41.6 145.201 41.6206 145.266 41.6609C145.332 41.7011 145.391 41.76 145.441 41.8343C145.492 41.9086 145.532 41.9967 145.559 42.0938C145.586 42.1909 145.6 42.295 145.6 42.4C145.6 42.5051 145.586 42.6091 145.559 42.7062C145.532 42.8032 145.492 42.8914 145.441 42.9657C145.391 43.04 145.332 43.0989 145.266 43.1391C145.201 43.1793 145.13 43.2 145.059 43.2Z" fill="#F2F2F2"/>
<path d="M95.4595 51.2001H50.9403C50.7971 51.2001 50.6596 51.0735 50.5583 50.8486C50.457 50.6235 50.4 50.3183 50.4 50C50.4 49.6818 50.457 49.3764 50.5583 49.1515C50.6596 48.9264 50.7971 48.8 50.9403 48.8H95.4595C95.6033 48.8 95.7406 48.9264 95.8411 49.1515C95.9427 49.3764 96 49.6818 96 50C96 50.3183 95.9427 50.6235 95.8411 50.8486C95.7406 51.0735 95.6033 51.2001 95.4595 51.2001Z" fill="#F2F2F2"/>
<path d="M145.05 51.2001H99.75C99.6037 51.2001 99.464 51.0735 99.3606 50.8486C99.2572 50.6235 99.2 50.3183 99.2 50C99.2 49.6818 99.2572 49.3764 99.3606 49.1515C99.464 48.9264 99.6037 48.8 99.75 48.8H145.05C145.196 48.8 145.336 48.9264 145.438 49.1515C145.542 49.3764 145.6 49.6818 145.6 50C145.6 50.3183 145.542 50.6235 145.438 50.8486C145.336 51.0735 145.196 51.2001 145.05 51.2001Z" fill="#F2F2F2"/>
<path d="M96.25 58.4H50.9498C50.8039 58.4 50.6641 58.3579 50.5611 58.2828C50.458 58.2078 50.4 58.1061 50.4 58C50.4 57.8939 50.458 57.7922 50.5611 57.7171C50.6641 57.6421 50.8039 57.6 50.9498 57.6H96.25C96.3963 57.6 96.536 57.6421 96.6383 57.7171C96.7417 57.7922 96.8 57.8939 96.8 58C96.8 58.1061 96.7417 58.2078 96.6383 58.2828C96.536 58.3579 96.3963 58.4 96.25 58.4Z" fill="#F2F2F2"/>
<path d="M96.25 66.4H50.9498C50.8041 66.4 50.6641 66.3578 50.5611 66.2828C50.458 66.2078 50.4 66.1061 50.4 66C50.4 65.8939 50.458 65.7921 50.5611 65.7171C50.6641 65.6421 50.8041 65.6 50.9498 65.6H96.25C96.3963 65.6 96.536 65.6421 96.6383 65.7171C96.7417 65.7921 96.8 65.8939 96.8 66C96.8 66.1061 96.7417 66.2078 96.6383 66.2828C96.536 66.3578 96.3963 66.4 96.25 66.4Z" fill="#F2F2F2"/>
<path d="M117.037 35.2H103.763C103.613 35.2 103.47 35.1579 103.365 35.0829C103.26 35.0078 103.2 34.9061 103.2 34.8C103.2 34.6939 103.26 34.5922 103.365 34.5172C103.47 34.4421 103.613 34.4 103.763 34.4H117.037C117.187 34.4 117.33 34.4421 117.435 34.5172C117.54 34.5922 117.6 34.6939 117.6 34.8C117.6 34.9061 117.54 35.0078 117.435 35.0829C117.33 35.1579 117.187 35.2 117.037 35.2Z" fill="#F2F2F2"/>
<path d="M117.037 58.4H103.763C103.613 58.4 103.47 58.3579 103.365 58.2828C103.26 58.2078 103.2 58.1061 103.2 58C103.2 57.8939 103.26 57.7922 103.365 57.7171C103.47 57.6421 103.613 57.6 103.763 57.6H117.037C117.187 57.6 117.33 57.6421 117.435 57.7171C117.54 57.7922 117.6 57.8939 117.6 58C117.6 58.1061 117.54 58.2078 117.435 58.2828C117.33 58.3579 117.187 58.4 117.037 58.4Z" fill="#F2F2F2"/>
<path d="M117.036 66.4H103.764C103.69 66.4001 103.616 66.3898 103.548 66.3698C103.48 66.3497 103.417 66.3203 103.365 66.2831C103.313 66.2459 103.272 66.2018 103.243 66.1532C103.215 66.1047 103.2 66.0526 103.2 66C103.2 65.9474 103.215 65.8953 103.243 65.8467C103.272 65.7981 103.313 65.7539 103.365 65.7168C103.417 65.6796 103.48 65.6502 103.548 65.6302C103.616 65.6101 103.69 65.5999 103.764 65.6H117.036C117.111 65.5999 117.184 65.6101 117.252 65.6302C117.32 65.6502 117.383 65.6796 117.435 65.7168C117.487 65.7539 117.529 65.7981 117.557 65.8467C117.585 65.8953 117.6 65.9474 117.6 66C117.6 66.0526 117.585 66.1047 117.557 66.1532C117.529 66.2018 117.487 66.2459 117.435 66.2831C117.383 66.3203 117.32 66.3497 117.252 66.3698C117.184 66.3898 117.111 66.4001 117.036 66.4Z" fill="#F2F2F2"/>
<path d="M137.069 66.4H124.53C124.389 66.3997 124.254 66.3575 124.155 66.2825C124.055 66.2075 124 66.1059 124 66C124 65.894 124.055 65.7924 124.155 65.7174C124.254 65.6424 124.389 65.6002 124.53 65.6H137.069C137.138 65.5999 137.207 65.6101 137.272 65.6302C137.336 65.6502 137.395 65.6796 137.445 65.7168C137.494 65.7539 137.533 65.7981 137.56 65.8467C137.586 65.8953 137.6 65.9474 137.6 66C137.6 66.0526 137.586 66.1047 137.56 66.1532C137.533 66.2018 137.494 66.2459 137.445 66.2831C137.395 66.3203 137.336 66.3497 137.272 66.3698C137.207 66.3898 137.138 66.4001 137.069 66.4Z" fill="#F2F2F2"/>
<path d="M63.4688 43.2H50.9312C50.7903 43.2 50.6552 43.1158 50.5555 42.9657C50.4559 42.8157 50.4 42.6122 50.4 42.4C50.4 42.1878 50.4559 41.9844 50.5555 41.8343C50.6552 41.6843 50.7903 41.6 50.9312 41.6H63.4688C63.6097 41.6 63.7448 41.6843 63.8444 41.8343C63.9441 41.9844 64 42.1878 64 42.4C64 42.6122 63.9441 42.8157 63.8444 42.9657C63.7448 43.1158 63.6097 43.2 63.4688 43.2Z" fill="#F2F2F2"/>
<path d="M95.4595 150.4H50.9403C50.797 150.4 50.6596 150.357 50.5583 150.283C50.4569 150.208 50.4 150.106 50.4 150C50.4 149.894 50.4569 149.792 50.5583 149.717C50.6596 149.642 50.797 149.6 50.9403 149.6H95.4595C95.6033 149.6 95.7406 149.642 95.8422 149.717C95.9427 149.792 96 149.894 96 150C96 150.106 95.9427 150.208 95.8422 150.283C95.7406 150.357 95.6033 150.4 95.4595 150.4Z" fill="#F2F2F2"/>
<path d="M95.4595 166.4H50.9403C50.797 166.4 50.6596 166.272 50.5582 166.048C50.4569 165.822 50.4 165.518 50.4 165.199C50.4 164.882 50.4569 164.576 50.5582 164.352C50.6596 164.126 50.797 164 50.9403 164H95.4595C95.6033 164 95.7406 164.126 95.8422 164.352C95.9427 164.576 96 164.882 96 165.199C96 165.518 95.9427 165.822 95.8422 166.048C95.7406 166.272 95.6033 166.4 95.4595 166.4Z" fill="#F2F2F2"/>
<path d="M95.4585 174.4H50.9414C50.8704 174.4 50.8 174.369 50.7344 174.309C50.6686 174.249 50.609 174.161 50.5587 174.05C50.5083 173.939 50.4685 173.805 50.4412 173.66C50.4141 173.514 50.4 173.357 50.4 173.2C50.4 173.041 50.4141 172.886 50.4412 172.74C50.4685 172.595 50.5083 172.461 50.5587 172.35C50.609 172.239 50.6686 172.15 50.7344 172.089C50.8 172.029 50.8704 171.998 50.9414 172H95.4585C95.5298 171.998 95.6001 172.029 95.666 172.089C95.7319 172.15 95.7914 172.239 95.8411 172.35C95.8919 172.461 95.9319 172.595 95.9589 172.74C95.986 172.886 96 173.041 96 173.2C96 173.357 95.986 173.514 95.9589 173.66C95.9319 173.805 95.8919 173.939 95.8411 174.05C95.7914 174.161 95.7319 174.249 95.666 174.309C95.6001 174.369 95.5298 174.4 95.4585 174.4Z" fill="#F2F2F2"/>
<path d="M114.638 166.4H101.363C101.213 166.4 101.07 166.358 100.964 166.283C100.86 166.208 100.8 166.106 100.8 166C100.8 165.894 100.86 165.792 100.964 165.717C101.07 165.642 101.213 165.6 101.363 165.6H114.638C114.787 165.6 114.93 165.642 115.036 165.717C115.141 165.792 115.2 165.894 115.2 166C115.2 166.106 115.141 166.208 115.036 166.283C114.93 166.358 114.787 166.4 114.638 166.4Z" fill="#F2F2F2"/>
<path d="M114.638 174.4H101.363C101.213 174.4 101.07 174.274 100.964 174.048C100.86 173.824 100.8 173.517 100.8 173.2C100.8 172.881 100.86 172.576 100.964 172.35C101.07 172.126 101.213 172 101.363 172H114.638C114.787 172 114.93 172.126 115.036 172.35C115.141 172.576 115.2 172.881 115.2 173.2C115.2 173.517 115.141 173.824 115.036 174.048C114.93 174.274 114.787 174.4 114.638 174.4Z" fill="#F2F2F2"/>
<path d="M136.269 166.4H123.731C123.591 166.4 123.456 166.358 123.356 166.283C123.256 166.208 123.2 166.106 123.2 166C123.2 165.894 123.256 165.792 123.356 165.717C123.456 165.642 123.591 165.6 123.731 165.6H136.269C136.41 165.6 136.545 165.642 136.645 165.717C136.744 165.792 136.8 165.894 136.8 166C136.8 166.106 136.744 166.208 136.645 166.283C136.545 166.358 136.41 166.4 136.269 166.4Z" fill="#F2F2F2"/>
<path d="M145.059 158.4H74.9413C74.7973 158.4 74.6598 158.316 74.5581 158.165C74.4563 158.016 74.4 157.813 74.4 157.6C74.4 157.387 74.4563 157.184 74.5581 157.033C74.6598 156.884 74.7973 156.8 74.9413 156.8H145.059C145.203 156.8 145.34 156.884 145.441 157.033C145.543 157.184 145.6 157.387 145.6 157.6C145.6 157.813 145.543 158.016 145.441 158.165C145.34 158.316 145.203 158.4 145.059 158.4Z" fill="#F2F2F2"/>
<path d="M63.4688 158.4H50.9313C50.7904 158.4 50.6553 158.316 50.5556 158.165C50.456 158.016 50.4 157.813 50.4 157.6C50.4 157.387 50.456 157.184 50.5556 157.033C50.6553 156.884 50.7904 156.8 50.9313 156.8H63.4688C63.6097 156.8 63.7448 156.884 63.8444 157.033C63.944 157.184 64 157.387 64 157.6C64 157.813 63.944 158.016 63.8444 158.165C63.7448 158.316 63.6097 158.4 63.4688 158.4Z" fill="#F2F2F2"/>
<path d="M145.059 182.4H74.9424C74.8709 182.4 74.8006 182.381 74.7345 182.34C74.6685 182.3 74.609 182.241 74.5581 182.167C74.5083 182.092 74.4682 182.004 74.4412 181.906C74.4141 181.809 74.4 181.705 74.4 181.6C74.4 181.494 74.4141 181.391 74.4412 181.294C74.4682 181.196 74.5083 181.108 74.5581 181.034C74.609 180.959 74.6685 180.9 74.7345 180.86C74.8006 180.82 74.8709 180.799 74.9424 180.8H145.059C145.203 180.8 145.34 180.884 145.441 181.034C145.543 181.184 145.6 181.387 145.6 181.6C145.6 181.813 145.543 182.016 145.441 182.165C145.34 182.316 145.203 182.4 145.059 182.4Z" fill="#F2F2F2"/>
<path d="M63.4677 182.4H50.9323C50.8624 182.4 50.7932 182.381 50.7287 182.34C50.6641 182.3 50.6055 182.241 50.556 182.167C50.5065 182.092 50.4673 182.004 50.4405 181.906C50.4138 181.809 50.4 181.705 50.4 181.6C50.4 181.494 50.4138 181.391 50.4405 181.294C50.4673 181.196 50.5065 181.108 50.556 181.034C50.6055 180.959 50.6641 180.9 50.7287 180.86C50.7932 180.82 50.8624 180.799 50.9323 180.8H63.4677C63.5375 180.799 63.6067 180.82 63.6713 180.86C63.7359 180.9 63.7946 180.959 63.844 181.034C63.8934 181.108 63.9326 181.196 63.9594 181.294C63.9862 181.391 64 181.494 64 181.6C64 181.705 63.9862 181.809 63.9594 181.906C63.9326 182.004 63.8934 182.092 63.844 182.167C63.7946 182.241 63.7359 182.3 63.6713 182.34C63.6067 182.381 63.5375 182.4 63.4677 182.4Z" fill="#F2F2F2"/>
<path d="M85.5426 85.6L68 107.6L85.5426 129.6L89.4903 124.587L76.2233 107.74L89.6 90.7523L85.5426 85.6Z" fill="#FD5E53"/>
<path d="M110.456 85.6L128 107.6L110.456 129.6L106.51 124.587L119.777 107.74L106.4 90.7523L110.456 85.6Z" fill="#FD5E53"/>
<path d="M12.4 16.7999C13.9464 16.7999 15.2 15.5464 15.2 13.9999C15.2 12.4535 13.9464 11.2 12.4 11.2C10.8536 11.2 9.59998 12.4535 9.59998 13.9999C9.59998 15.5464 10.8536 16.7999 12.4 16.7999Z" fill="#FD5E53"/>
<path d="M18 16.7999C19.1046 16.7999 20 15.5464 20 13.9999C20 12.4535 19.1046 11.2 18 11.2C16.8954 11.2 16 12.4535 16 13.9999C16 15.5464 16.8954 16.7999 18 16.7999Z" fill="#FD5E53"/>
<path d="M23.9999 16.7999C25.3254 16.7999 26.4 15.5464 26.4 13.9999C26.4 12.4535 25.3254 11.2 23.9999 11.2C22.6744 11.2 21.6 12.4535 21.6 13.9999C21.6 15.5464 22.6744 16.7999 23.9999 16.7999Z" fill="#FD5E53"/>
<path opacity="0.1" d="M188 18.4H8V20H188V18.4Z" fill="black"/>
</svg>
