<svg width="1061" height="531" viewBox="0 0 1061 531" fill="none" xmlns="http://www.w3.org/2000/svg">
<g id="devHubLogo">
<path id="desktop" d="M828.793 99.727H568.623V94.3647H450.652V99.727H189.41C187.099 99.727 184.811 100.182 182.675 101.067C180.54 101.951 178.6 103.247 176.966 104.881C175.332 106.516 174.036 108.456 173.151 110.591C172.267 112.726 171.812 115.014 171.812 117.326V473.578C171.812 478.245 173.666 482.721 176.966 486.022C180.266 489.322 184.743 491.176 189.41 491.176H828.793C833.46 491.176 837.936 489.322 841.237 486.022C844.537 482.721 846.391 478.245 846.391 473.578V117.326C846.391 115.014 845.936 112.726 845.052 110.591C844.167 108.456 842.871 106.516 841.237 104.881C839.603 103.247 837.663 101.951 835.527 101.067C833.392 100.182 831.104 99.727 828.793 99.727Z" fill="#3F3D56"/>
<path id="screen" opacity="0.1" d="M822.797 130.828H195.406V484.741H822.797V130.828Z" fill="black"/>
<path id="webcam" d="M508.565 121.176C512.119 121.176 515 118.295 515 114.741C515 111.188 512.119 108.307 508.565 108.307C505.011 108.307 502.13 111.188 502.13 114.741C502.13 118.295 505.011 121.176 508.565 121.176Z" fill="#6C63FF"/>
<path id="keyboard" d="M864.007 478.307H802.778V473.895C802.778 473.78 802.755 473.667 802.711 473.56C802.667 473.454 802.603 473.358 802.522 473.277C802.44 473.195 802.344 473.131 802.238 473.087C802.132 473.043 802.018 473.02 801.903 473.02H780.91C780.795 473.02 780.682 473.043 780.575 473.087C780.469 473.131 780.373 473.195 780.292 473.277C780.21 473.358 780.146 473.454 780.102 473.56C780.058 473.667 780.035 473.78 780.035 473.895V478.307H766.915V473.895C766.915 473.78 766.892 473.667 766.848 473.56C766.804 473.454 766.74 473.358 766.659 473.277C766.577 473.195 766.481 473.131 766.375 473.087C766.269 473.043 766.155 473.02 766.04 473.02H745.047C744.932 473.02 744.819 473.043 744.713 473.087C744.606 473.131 744.51 473.195 744.429 473.277C744.348 473.358 744.283 473.454 744.239 473.56C744.195 473.667 744.173 473.78 744.173 473.895V478.307H731.052V473.895C731.052 473.78 731.029 473.667 730.985 473.56C730.941 473.454 730.877 473.358 730.796 473.277C730.715 473.195 730.618 473.131 730.512 473.087C730.406 473.043 730.292 473.02 730.177 473.02H709.184C709.07 473.02 708.956 473.043 708.85 473.087C708.744 473.131 708.647 473.195 708.566 473.277C708.485 473.358 708.42 473.454 708.376 473.56C708.332 473.667 708.31 473.78 708.31 473.895V478.307H695.189V473.895C695.189 473.78 695.167 473.667 695.123 473.56C695.079 473.454 695.014 473.358 694.933 473.277C694.852 473.195 694.755 473.131 694.649 473.087C694.543 473.043 694.429 473.02 694.314 473.02H673.322C673.207 473.02 673.093 473.043 672.987 473.087C672.881 473.131 672.784 473.195 672.703 473.277C672.622 473.358 672.557 473.454 672.513 473.56C672.469 473.667 672.447 473.78 672.447 473.895V478.307H659.326V473.895C659.326 473.78 659.304 473.667 659.26 473.56C659.216 473.454 659.151 473.358 659.07 473.277C658.989 473.195 658.892 473.131 658.786 473.087C658.68 473.043 658.566 473.02 658.452 473.02H637.459C637.344 473.02 637.23 473.043 637.124 473.087C637.018 473.131 636.921 473.195 636.84 473.277C636.759 473.358 636.694 473.454 636.651 473.56C636.607 473.667 636.584 473.78 636.584 473.895V478.307H623.463V473.895C623.463 473.78 623.441 473.667 623.397 473.56C623.353 473.454 623.288 473.358 623.207 473.277C623.126 473.195 623.03 473.131 622.923 473.087C622.817 473.043 622.703 473.02 622.589 473.02H601.596C601.481 473.02 601.367 473.043 601.261 473.087C601.155 473.131 601.058 473.195 600.977 473.277C600.896 473.358 600.832 473.454 600.788 473.56C600.744 473.667 600.721 473.78 600.721 473.895V478.307H587.6V473.895C587.6 473.78 587.578 473.667 587.534 473.56C587.49 473.454 587.426 473.358 587.344 473.277C587.263 473.195 587.167 473.131 587.06 473.087C586.954 473.043 586.841 473.02 586.726 473.02H422.281C422.166 473.02 422.053 473.043 421.947 473.087C421.84 473.131 421.744 473.195 421.663 473.277C421.582 473.358 421.517 473.454 421.473 473.56C421.429 473.667 421.407 473.78 421.407 473.895V478.307H408.286V473.895C408.286 473.78 408.263 473.667 408.219 473.56C408.176 473.454 408.111 473.358 408.03 473.277C407.949 473.195 407.852 473.131 407.746 473.087C407.64 473.043 407.526 473.02 407.411 473.02H386.418C386.304 473.02 386.19 473.043 386.084 473.087C385.978 473.131 385.881 473.195 385.8 473.277C385.719 473.358 385.654 473.454 385.61 473.56C385.566 473.667 385.544 473.78 385.544 473.895V478.307H372.423V473.895C372.423 473.78 372.401 473.667 372.357 473.56C372.313 473.454 372.248 473.358 372.167 473.277C372.086 473.195 371.989 473.131 371.883 473.087C371.777 473.043 371.663 473.02 371.548 473.02H350.556C350.441 473.02 350.327 473.043 350.221 473.087C350.115 473.131 350.018 473.195 349.937 473.277C349.856 473.358 349.791 473.454 349.747 473.56C349.703 473.667 349.681 473.78 349.681 473.895V478.307H336.56V473.895C336.56 473.78 336.538 473.667 336.494 473.56C336.45 473.454 336.385 473.358 336.304 473.277C336.223 473.195 336.126 473.131 336.02 473.087C335.914 473.043 335.8 473.02 335.686 473.02H314.693C314.578 473.02 314.464 473.043 314.358 473.087C314.252 473.131 314.155 473.195 314.074 473.277C313.993 473.358 313.929 473.454 313.885 473.56C313.841 473.667 313.818 473.78 313.818 473.895V478.307H300.697V473.895C300.697 473.78 300.675 473.667 300.631 473.56C300.587 473.454 300.522 473.358 300.441 473.277C300.36 473.195 300.264 473.131 300.157 473.087C300.051 473.043 299.938 473.02 299.823 473.02H278.83C278.715 473.02 278.601 473.043 278.495 473.087C278.389 473.131 278.292 473.195 278.211 473.277C278.13 473.358 278.066 473.454 278.022 473.56C277.978 473.667 277.955 473.78 277.955 473.895V478.307H264.835V473.895C264.835 473.78 264.812 473.667 264.768 473.56C264.724 473.454 264.66 473.358 264.578 473.277C264.497 473.195 264.401 473.131 264.295 473.087C264.188 473.043 264.075 473.02 263.96 473.02H242.967C242.852 473.02 242.738 473.043 242.632 473.087C242.526 473.131 242.43 473.195 242.348 473.277C242.267 473.358 242.203 473.454 242.159 473.56C242.115 473.667 242.092 473.78 242.092 473.895V478.307H228.972V473.895C228.972 473.78 228.949 473.667 228.905 473.56C228.861 473.454 228.797 473.358 228.715 473.277C228.634 473.195 228.538 473.131 228.432 473.087C228.326 473.043 228.212 473.02 228.097 473.02H207.104C206.989 473.02 206.875 473.043 206.769 473.087C206.663 473.131 206.567 473.195 206.485 473.277C206.404 473.358 206.34 473.454 206.296 473.56C206.252 473.667 206.229 473.78 206.229 473.895V478.307H165.993C160.425 478.307 155.086 480.518 151.149 484.455C147.212 488.392 145 493.732 145 499.3V508.792C145 514.36 147.212 519.699 151.149 523.636C155.086 527.573 160.425 529.785 165.993 529.785H864.007C869.575 529.785 874.914 527.573 878.851 523.636C882.788 519.699 885 514.36 885 508.792V499.3C885 493.732 882.788 488.392 878.851 484.455C874.914 480.518 869.575 478.307 864.007 478.307V478.307Z" fill="#3F3D56"/>
<path id="flame" d="M484.766 415.963C488.405 417.412 494.7 420.155 494.7 414.997C494.7 412.831 492.92 412.659 491.233 412.098C484.895 409.805 479.482 405.51 475.816 399.865C469.193 390.11 467.662 380.37 467.662 368.698C467.662 342.861 503.338 338.186 503.338 312.333C503.338 302.437 497.09 299.538 497.09 296.749C497.09 294.972 497.653 294.973 499.433 294.973C505.884 294.973 514.85 305.694 517.584 310.93C519.109 313.647 519.784 316.757 519.521 319.859C519.521 325.501 518.959 331.298 518.959 337.001C518.959 358.74 544.701 352.943 544.701 342.471C544.701 337.64 541.795 333.121 541.795 328.446C541.795 327.885 541.795 327.48 542.373 327.48C545.107 327.48 549.949 333.713 551.324 335.614C556.01 342.783 558.181 352.367 558.181 360.891C558.181 386.978 534.376 400.348 534.376 405.99C534.376 406.784 536.719 412.223 544.138 407.548C568.115 395.393 587 369.212 587 335.24C587 308.187 579.971 288.786 561.086 268.73C557.962 265.426 547.856 255.125 542.935 255.125C536.313 255.125 548.746 270.101 548.746 280.246C548.826 281.568 548.624 282.891 548.153 284.129C547.681 285.367 546.952 286.491 546.013 287.426C545.074 288.362 543.946 289.087 542.705 289.556C541.463 290.024 540.136 290.223 538.812 290.142C529.44 290.142 527.112 269.696 525.988 263.338C521.302 236.114 515.647 216.478 488.499 203.669C480.111 199.648 459.039 194.163 459.039 201.908C459.039 203.84 461.226 205.196 462.757 206.006C470.177 210.51 478.58 223.242 478.58 236.768C478.58 273.888 432.001 307.782 432.001 346.429C431.845 378.874 454.681 404.883 484.703 415.838L484.766 415.963Z" fill="#FD5E53"/>
</g>
</svg>
