<svg width="200" height="200" viewBox="0 0 200 200" fill="none" xmlns="http://www.w3.org/2000/svg">
<path d="M50.0019 0V134.164C45.5266 132.724 40.8507 132.003 36.1494 132.028C16.2006 132.028 0 146.144 0 166.092C0 186.04 16.2006 200 36.1494 200C56.0982 200 72.3988 185.312 72.3988 164V70.832H177.602V134.164C173.128 132.723 168.452 132.003 163.75 132.028C143.802 132.028 127.601 146.144 127.601 166.092C127.601 186.04 143.802 200 163.75 200C183.699 200 200 185.312 200 164V0H50.0019ZM177.606 50H72.4028V22.4H177.606V50Z" fill="#FD5E53"/>
</svg>
