<svg width="200" height="200" viewBox="0 0 200 200" fill="none" xmlns="http://www.w3.org/2000/svg">
<path d="M149.999 13H49.9993L0 100.5L49.9993 188H149.999L200 100.5L149.999 13Z" fill="#E6E6E6"/>
<path d="M55.9999 177H144L188 100.5L144 24H55.9999L12 100.5L55.9999 177Z" fill="white"/>
<path d="M55 82C57.2091 82 59 80.209 59 78C59 75.791 57.2091 74 55 74C52.7909 74 51 75.791 51 78C51 80.209 52.7909 82 55 82Z" fill="#FD5E53"/>
<path d="M55 105C57.2091 105 59 102.985 59 100.5C59 98.0146 57.2091 96 55 96C52.7909 96 51 98.0146 51 100.5C51 102.985 52.7909 105 55 105Z" fill="#FD5E53"/>
<path d="M55 128C57.2091 128 59 126.209 59 124C59 121.791 57.2091 120 55 120C52.7909 120 51 121.791 51 124C51 126.209 52.7909 128 55 128Z" fill="#FD5E53"/>
<path d="M149 75H72V82H149V75Z" fill="#FD5E53"/>
<path d="M149 97H72V104H149V97Z" fill="#FD5E53"/>
<path d="M149 121H72V128H149V121Z" fill="#FD5E53"/>
</svg>
